#!OML:ASF F:\VICON\USERDATA\INSTALL\rory3\rory3.ASF
:FULLY-SPECIFIED
:DEGREES
126
root 1.10546 18.0963 -9.60548 -4.57944 -0.253743 -0.609752
lowerback 12.5404 0.110862 -0.8858
upperback 0.623471 0.0988251 1.16562
thorax -6.38752 0.0913993 1.71181
lowerneck -18.1667 -2.77509 -1.58184
upperneck 16.9785 -3.71205 1.6114
head 8.33022 -1.68893 0.340594
rclavicle -5.5287e-015 2.18663e-015
rhumerus -34.189 -22.3836 -76.0064
rradius 24.9662
rwrist 6.29574
rhand -14.5033 25.6647
rfingers 7.12502
rthumb 11.6438 -3.99174
lclavicle -5.5287e-015 2.18663e-015
lhumerus -30.3352 4.03441 81.7167
lradius 24.6403
lwrist 6.95436
lhand -24.1246 20.1986
lfingers 7.12502
lthumb 2.35707 50.1653
rfemur -24.9215 -1.76835 21.7089
rtibia 71.7125
rfoot -2.04897 -4.59025
rtoes 3.6885
lfemur -3.73475 -2.01296 -24.9112
ltibia 24.775
lfoot -13.4074 -2.17688
ltoes 3.08063
127
root 1.10596 18.0835 -9.45241 -4.6927 -0.206692 -0.490056
lowerback 12.6626 0.0429454 -1.1223
upperback 0.69371 -0.0222225 1.22339
thorax -6.37698 0.0393244 1.92868
lowerneck -18.0807 -2.74086 -1.48716
upperneck 16.9393 -3.66082 1.46477
head 8.29611 -1.67491 0.283788
rclavicle -7.96381e-015 7.55382e-015
rhumerus -34.2671 -21.977 -76.0802
rradius 25.1043
rwrist 5.87688
rhand -14.3052 24.8058
rfingers 7.12502
rthumb 11.8348 -4.8398
lclavicle -7.96381e-015 7.55382e-015
lhumerus -29.899 3.7251 81.8013
lradius 24.8417
lwrist 7.1044
lhand -24.925 20.8522
lfingers 7.12502
lthumb 1.58398 50.8261
rfemur -25.6293 -1.69824 21.6158
rtibia 70.5508
rfoot -3.50513 -4.79076
rtoes 1.70175
lfemur -3.19869 -1.98988 -25.0974
ltibia 24.8979
lfoot -14.0458 -2.21411
ltoes 1.78207
128
root 1.10767 18.0754 -9.29101 -4.66849 -0.122833 -0.307002
lowerback 12.6065 -0.0302988 -1.37543
upperback 0.744259 -0.155151 1.2269
thorax -6.28578 -0.0197749 2.09863
lowerneck -17.9506 -2.69907 -1.47079
upperneck 16.8275 -3.61783 1.51529
head 8.23574 -1.64988 0.305678
rclavicle -4.09993e-015 -3.57812e-015
rhumerus -34.3108 -21.647 -76.2429
rradius 24.6418
rwrist 4.10385
rhand -14.1149 24.8466
rfingers 7.12502
rthumb 12.0183 -4.78837
lclavicle -4.09993e-015 -3.57812e-015
lhumerus -29.4385 3.4618 81.8366
lradius 25.035
lwrist 7.45226
lhand -25.4983 20.2739
lfingers 7.12502
lthumb 1.03026 50.2511
rfemur -26.365 -1.66443 21.4313
rtibia 69.2282
rfoot -4.56279 -5.16942
rtoes 0.382582
lfemur -2.67974 -2.02859 -25.3455
ltibia 24.8646
lfoot -14.5836 -2.24764
ltoes 0.674555
129
root 1.10924 18.0612 -9.12945 -4.54482 0.0185321 -0.168854
lowerback 12.5531 -0.123707 -1.50944
upperback 0.748886 -0.299089 1.20532
thorax -6.24373 -0.0873126 2.17665
lowerneck -18.0035 -2.70054 -1.56321
upperneck 16.6758 -3.63068 1.70933
head 8.20002 -1.64222 0.384183
rclavicle 1.45734e-014 7.95139e-016
rhumerus -34.2923 -21.6438 -76.2741
rradius 25.5121
rwrist 6.38873
rhand -14.6848 26.3834
rfingers 7.12502
rthumb 11.4688 -3.28289
lclavicle 1.45734e-014 7.95139e-016
lhumerus -28.8843 3.37899 81.7665
lradius 25.1441
lwrist 7.61755
lhand -25.0551 21.2508
lfingers 7.12502
lthumb 1.45832 51.2255
rfemur -27.1385 -1.63077 21.3222
rtibia 67.7106
rfoot -5.35088 -5.87667
rtoes -0.631474
lfemur -2.1403 -1.97914 -25.5177
ltibia 24.6899
lfoot -14.9992 -2.22696
ltoes 0.895944
130
root 1.11445 18.0495 -8.97159 -4.41202 0.0997225 0.0524401
lowerback 12.569 -0.185766 -1.7114
upperback 0.754976 -0.412277 1.17508
thorax -6.2395 -0.137614 2.27922
lowerneck -18.1629 -2.72321 -1.55569
upperneck 16.6181 -3.66608 1.73817
head 8.20953 -1.65457 0.38658
rclavicle -4.19933e-015 -2.5842e-015
rhumerus -34.2466 -21.6296 -76.3034
rradius 24.4913
rwrist 4.15121
rhand -12.6847 19.7587
rfingers 7.12502
rthumb 13.3972 -9.79056
lclavicle -4.19933e-015 -2.5842e-015
lhumerus -28.4824 3.08961 81.7699
lradius 25.6605
lwrist 7.73457
lhand -24.938 21.788
lfingers 7.12502
lthumb 1.57145 51.762
rfemur -27.872 -1.63405 21.1
rtibia 65.9973
rfoot -6.1417 -6.34366
rtoes -4.71352
lfemur -1.67002 -1.79397 -25.7803
ltibia 24.5938
lfoot -15.3596 -2.248
ltoes 2.45421
131
root 1.11517 18.0439 -8.8144 -4.31568 0.0541614 0.0986546
lowerback 12.6176 -0.234601 -1.90659
upperback 0.651125 -0.497499 1.29901
thorax -6.36997 -0.169176 2.53784
lowerneck -17.7604 -2.71837 -1.66059
upperneck 16.487 -3.62451 1.68952
head 8.09547 -1.65073 0.398177
rclavicle -1.00262e-014 -1.63003e-014
rhumerus -34.5822 -21.3464 -76.17
rradius 25.5722
rwrist 6.16435
rhand -14.9301 27.246
rfingers 7.12502
rthumb 11.2322 -2.43332
lclavicle -1.00262e-014 -1.63003e-014
lhumerus -28.3842 3.08667 81.7963
lradius 26.2224
lwrist 7.75225
lhand -24.5608 22.133
lfingers 7.12502
lthumb 1.93579 52.104
rfemur -28.4549 -1.5046 21.1009
rtibia 64.0618
rfoot -5.9404 -7.33701
rtoes -11.0322
lfemur -1.13995 -1.61974 -25.8575
ltibia 24.6293
lfoot -15.8085 -2.02141
ltoes 3.40242
132
root 1.11323 18.0341 -8.66017 -4.29339 -0.102949 0.0159781
lowerback 12.7806 -0.273828 -2.01096
upperback 0.506792 -0.55595 1.46479
thorax -6.60905 -0.186905 2.78765
lowerneck -17.233 -2.6441 -1.84668
upperneck 16.4791 -3.49196 1.7356
head 8.0027 -1.59927 0.466205
rclavicle 1.95306e-014 1.51076e-014
rhumerus -34.9828 -20.3765 -76.3675
rradius 25.19
rwrist 3.38644
rhand -14.1349 22.6125
rfingers 7.12502
rthumb 11.999 -7.02357
lclavicle 1.95306e-014 1.51076e-014
lhumerus -28.424 2.97021 81.8324
lradius 26.8192
lwrist 8.21672
lhand -23.8257 24.2057
lfingers 7.12502
lthumb 2.64568 54.169
rfemur -28.8764 -1.15063 21.2807
rtibia 61.9187
rfoot -5.78323 -8.74786
rtoes -13.2436
lfemur -0.448394 -1.38355 -25.7836
ltibia 24.605
lfoot -16.2926 -1.73846
ltoes 3.11145
133
root 1.1132 18.0189 -8.49985 -4.28461 -0.170072 0.126375
lowerback 12.8022 -0.318243 -2.1371
upperback 0.528842 -0.633985 1.46116
thorax -6.59151 -0.221797 2.86961
lowerneck -17.127 -2.5986 -1.89842
upperneck 16.4499 -3.43773 1.83632
head 7.9763 -1.56759 0.515942
rclavicle 7.36746e-015 1.15295e-014
rhumerus -35.0797 -20.3298 -76.3566
rradius 25.5187
rwrist 4.37285
rhand -13.8318 22.5092
rfingers 7.12502
rthumb 12.2913 -7.10952
lclavicle 7.36746e-015 1.15295e-014
lhumerus -28.0901 2.81441 81.7372
lradius 27.1841
lwrist 8.25604
lhand -23.6651 24.3605
lfingers 7.12502
lthumb 2.80081 54.3219
rfemur -29.2084 -0.853298 21.1959
rtibia 59.6548
rfoot -7.3165 -9.29439
rtoes -8.63797
lfemur 0.266524 -1.21459 -25.9602
ltibia 24.5272
lfoot -16.7346 -1.43872
ltoes 0.802835
134
root 1.11307 18.0118 -8.33678 -4.06988 -0.269154 0.245561
lowerback 12.7295 -0.288277 -2.17774
upperback 0.517815 -0.60575 1.36119
thorax -6.56495 -0.208649 2.78038
lowerneck -17.4212 -2.63119 -1.66168
upperneck 16.4851 -3.5349 1.81139
head 8.03652 -1.5986 0.453864
rclavicle 4.11236e-015 -1.19271e-015
rhumerus -35.2158 -20.7014 -76.3407
rradius 25.8679
rwrist 5.25829
rhand -14.8199 24.4911
rfingers 7.12502
rthumb 11.3385 -5.18237
lclavicle 4.11236e-015 -1.19271e-015
lhumerus -27.5631 2.31002 81.6528
lradius 27.4501
lwrist 8.26303
lhand -24.1934 22.2852
lfingers 7.12502
lthumb 2.29058 52.2526
rfemur -29.664 -0.598058 21.1006
rtibia 57.2339
rfoot -7.33387 -9.48754
rtoes -6.48512
lfemur 0.838884 -1.01359 -26.1541
ltibia 24.2705
lfoot -17.1473 -1.02597
ltoes 2.11698
135
root 1.11369 18.0033 -8.17281 -3.71398 -0.18808 0.424439
lowerback 12.174 -0.309479 -2.35525
upperback 0.664115 -0.651974 1.30676
thorax -6.09401 -0.236755 2.81997
lowerneck -17.8562 -2.69183 -1.48152
upperneck 16.5086 -3.65522 1.78827
head 8.11864 -1.64274 0.396913
rclavicle 3.42904e-015 4.37326e-015
rhumerus -34.9189 -21.0294 -76.4179
rradius 25.6548
rwrist 4.90662
rhand -15.8164 23.0891
rfingers 7.12502
rthumb 10.3772 -6.63482
lclavicle 3.42904e-015 4.37326e-015
lhumerus -26.7259 1.81504 81.7024
lradius 27.7053
lwrist 8.48461
lhand -24.5957 22.6588
lfingers 7.12502
lthumb 1.90206 52.6301
rfemur -30.1612 -0.452544 20.8956
rtibia 54.6992
rfoot -7.45831 -10.3872
rtoes -4.20882
lfemur 1.37976 -0.825488 -26.3669
ltibia 23.7692
lfoot -17.3733 -0.932001
ltoes 2.24603
136
root 1.11578 17.9943 -8.00946 -3.54638 0.0525586 0.670712
lowerback 12.208 -0.422893 -2.57628
upperback 0.557797 -0.836253 1.27649
thorax -6.21111 -0.317861 2.94691
lowerneck -17.8366 -2.71722 -1.66595
upperneck 16.5779 -3.67947 1.96859
head 8.14627 -1.64709 0.483959
rclavicle -8.69683e-017 2.06736e-014
rhumerus -34.8837 -21.1165 -76.3421
rradius 25.1928
rwrist 4.45184
rhand -15.7176 22.386
rfingers 7.12502
rthumb 10.4726 -7.33314
lclavicle -8.69683e-017 2.06736e-014
lhumerus -26.4409 1.44721 81.7571
lradius 27.9833
lwrist 8.86487
lhand -25.4313 22.8172
lfingers 7.12502
lthumb 1.09501 52.7941
rfemur -30.2844 -0.471728 20.5616
rtibia 51.9475
rfoot -8.43243 -10.9914
rtoes -2.08302
lfemur 2.09395 -0.776831 -26.6405
ltibia 23.1023
lfoot -17.4137 -1.19627
ltoes 1.31532
